<svg xmlns="http://www.w3.org/2000/svg" version="1.1" xmlns:xlink="http://www.w3.org/1999/xlink" xmlns:svgjs="http://svgjs.dev/svgjs" width="1440" height="560" preserveAspectRatio="none" viewBox="0 0 1440 560"><g mask="url(&quot;#SvgjsMask1097&quot;)" fill="none"><rect width="1440" height="560" x="0" y="0" fill="url(&quot;#SvgjsLinearGradient1098&quot;)"></rect><path d="M-55.52 367.74L-55.52 367.74" stroke="#132e65" stroke-width="1.5"></path><path d="M-55.52 367.74L111.26 403.93" stroke="#132e65" stroke-width="1.5"></path><path d="M-55.52 367.74L-67.68 551.81" stroke="#132e65" stroke-width="1.5"></path><path d="M-67.68 551.81L-67.68 551.81" stroke="#132e65" stroke-width="1.5"></path><path d="M-67.68 551.81L-86.82 638.21" stroke="#132e65" stroke-width="1.5"></path><path d="M-67.68 551.81L56.79 541.75" stroke="#132e65" stroke-width="1.5"></path><path d="M-67.68 551.81L44.53 701.11" stroke="#132e65" stroke-width="1.5"></path><path d="M-67.68 551.81L111.26 403.93" stroke="#132e65" stroke-width="1.5"></path><path d="M-86.82 638.21L-86.82 638.21" stroke="#132e65" stroke-width="1.5"></path><path d="M-86.82 638.21L44.53 701.11" stroke="#132e65" stroke-width="1.5"></path><path d="M-86.82 638.21L56.79 541.75" stroke="#132e65" stroke-width="1.5"></path><path d="M-86.82 638.21L-55.52 367.74" stroke="#132e65" stroke-width="1.5"></path><path d="M111.26 403.93L111.26 403.93" stroke="#132e65" stroke-width="1.5"></path><path d="M111.26 403.93L191.72 369.11" stroke="#132e65" stroke-width="1.5"></path><path d="M111.26 403.93L56.79 541.75" stroke="#132e65" stroke-width="1.5"></path><path d="M111.26 403.93L230.24 537.7" stroke="#132e65" stroke-width="1.5"></path><path d="M56.79 541.75L56.79 541.75" stroke="#132e65" stroke-width="1.5"></path><path d="M44.53 701.11L44.53 701.11" stroke="#132e65" stroke-width="1.5"></path><path d="M44.53 701.11L56.79 541.75" stroke="#132e65" stroke-width="1.5"></path><path d="M44.53 701.11L243.37 649.29" stroke="#132e65" stroke-width="1.5"></path><path d="M191.72 369.11L191.72 369.11" stroke="#132e65" stroke-width="1.5"></path><path d="M191.72 369.11L230.24 537.7" stroke="#132e65" stroke-width="1.5"></path><path d="M191.72 369.11L375.49 370.45" stroke="#132e65" stroke-width="1.5"></path><path d="M230.24 537.7L230.24 537.7" stroke="#132e65" stroke-width="1.5"></path><path d="M230.24 537.7L243.37 649.29" stroke="#132e65" stroke-width="1.5"></path><path d="M230.24 537.7L342.88 488.85" stroke="#132e65" stroke-width="1.5"></path><path d="M230.24 537.7L56.79 541.75" stroke="#132e65" stroke-width="1.5"></path><path d="M243.37 649.29L243.37 649.29" stroke="#132e65" stroke-width="1.5"></path><path d="M243.37 649.29L345.12 706.38" stroke="#132e65" stroke-width="1.5"></path><path d="M375.49 370.45L375.49 370.45" stroke="#132e65" stroke-width="1.5"></path><path d="M375.49 370.45L342.88 488.85" stroke="#132e65" stroke-width="1.5"></path><path d="M375.49 370.45L549.35 364.43" stroke="#132e65" stroke-width="1.5"></path><path d="M375.49 370.45L535.1 495.95" stroke="#132e65" stroke-width="1.5"></path><path d="M342.88 488.85L342.88 488.85" stroke="#132e65" stroke-width="1.5"></path><path d="M345.12 706.38L345.12 706.38" stroke="#132e65" stroke-width="1.5"></path><path d="M345.12 706.38L230.24 537.7" stroke="#132e65" stroke-width="1.5"></path><path d="M345.12 706.38L550.39 646.19" stroke="#132e65" stroke-width="1.5"></path><path d="M345.12 706.38L342.88 488.85" stroke="#132e65" stroke-width="1.5"></path><path d="M345.12 706.38L535.1 495.95" stroke="#132e65" stroke-width="1.5"></path><path d="M549.35 364.43L549.35 364.43" stroke="#132e65" stroke-width="1.5"></path><path d="M549.35 364.43L639.26 377.24" stroke="#132e65" stroke-width="1.5"></path><path d="M549.35 364.43L535.1 495.95" stroke="#132e65" stroke-width="1.5"></path><path d="M535.1 495.95L535.1 495.95" stroke="#132e65" stroke-width="1.5"></path><path d="M535.1 495.95L675.77 514.55" stroke="#132e65" stroke-width="1.5"></path><path d="M535.1 495.95L550.39 646.19" stroke="#132e65" stroke-width="1.5"></path><path d="M535.1 495.95L639.26 377.24" stroke="#132e65" stroke-width="1.5"></path><path d="M535.1 495.95L342.88 488.85" stroke="#132e65" stroke-width="1.5"></path><path d="M550.39 646.19L550.39 646.19" stroke="#132e65" stroke-width="1.5"></path><path d="M550.39 646.19L640.13 693.28" stroke="#132e65" stroke-width="1.5"></path><path d="M550.39 646.19L675.77 514.55" stroke="#132e65" stroke-width="1.5"></path><path d="M672.11 220.48L672.11 220.48" stroke="#132e65" stroke-width="1.5"></path><path d="M672.11 220.48L810.44 245.06" stroke="#132e65" stroke-width="1.5"></path><path d="M672.11 220.48L639.26 377.24" stroke="#132e65" stroke-width="1.5"></path><path d="M639.26 377.24L639.26 377.24" stroke="#132e65" stroke-width="1.5"></path><path d="M639.26 377.24L675.77 514.55" stroke="#132e65" stroke-width="1.5"></path><path d="M675.77 514.55L675.77 514.55" stroke="#132e65" stroke-width="1.5"></path><path d="M675.77 514.55L640.13 693.28" stroke="#132e65" stroke-width="1.5"></path><path d="M640.13 693.28L640.13 693.28" stroke="#132e65" stroke-width="1.5"></path><path d="M640.13 693.28L535.1 495.95" stroke="#132e65" stroke-width="1.5"></path><path d="M861.44 63.18L861.44 63.18" stroke="#132e65" stroke-width="1.5"></path><path d="M861.44 63.18L996.51 41.84" stroke="#132e65" stroke-width="1.5"></path><path d="M861.44 63.18L810.44 245.06" stroke="#132e65" stroke-width="1.5"></path><path d="M810.44 245.06L810.44 245.06" stroke="#132e65" stroke-width="1.5"></path><path d="M810.44 245.06L800.8 347.58" stroke="#132e65" stroke-width="1.5"></path><path d="M810.44 245.06L978.99 216.06" stroke="#132e65" stroke-width="1.5"></path><path d="M810.44 245.06L965.37 372.06" stroke="#132e65" stroke-width="1.5"></path><path d="M810.44 245.06L639.26 377.24" stroke="#132e65" stroke-width="1.5"></path><path d="M800.8 347.58L800.8 347.58" stroke="#132e65" stroke-width="1.5"></path><path d="M800.8 347.58L639.26 377.24" stroke="#132e65" stroke-width="1.5"></path><path d="M800.8 347.58L965.37 372.06" stroke="#132e65" stroke-width="1.5"></path><path d="M800.8 347.58L672.11 220.48" stroke="#132e65" stroke-width="1.5"></path><path d="M800.8 347.58L675.77 514.55" stroke="#132e65" stroke-width="1.5"></path><path d="M997.92 -109.43L997.92 -109.43" stroke="#132e65" stroke-width="1.5"></path><path d="M997.92 -109.43L1125.58 -103.17" stroke="#132e65" stroke-width="1.5"></path><path d="M996.51 41.84L996.51 41.84" stroke="#132e65" stroke-width="1.5"></path><path d="M996.51 41.84L1120.15 96.86" stroke="#132e65" stroke-width="1.5"></path><path d="M996.51 41.84L997.92 -109.43" stroke="#132e65" stroke-width="1.5"></path><path d="M996.51 41.84L978.99 216.06" stroke="#132e65" stroke-width="1.5"></path><path d="M978.99 216.06L978.99 216.06" stroke="#132e65" stroke-width="1.5"></path><path d="M978.99 216.06L965.37 372.06" stroke="#132e65" stroke-width="1.5"></path><path d="M978.99 216.06L1096.07 349.15" stroke="#132e65" stroke-width="1.5"></path><path d="M978.99 216.06L1120.15 96.86" stroke="#132e65" stroke-width="1.5"></path><path d="M965.37 372.06L965.37 372.06" stroke="#132e65" stroke-width="1.5"></path><path d="M965.37 372.06L1096.07 349.15" stroke="#132e65" stroke-width="1.5"></path><path d="M965.37 372.06L987.09 526.01" stroke="#132e65" stroke-width="1.5"></path><path d="M987.09 526.01L987.09 526.01" stroke="#132e65" stroke-width="1.5"></path><path d="M987.09 526.01L992.46 648.14" stroke="#132e65" stroke-width="1.5"></path><path d="M987.09 526.01L1125.73 508.77" stroke="#132e65" stroke-width="1.5"></path><path d="M987.09 526.01L1096.07 349.15" stroke="#132e65" stroke-width="1.5"></path><path d="M987.09 526.01L1160.83 670.98" stroke="#132e65" stroke-width="1.5"></path><path d="M992.46 648.14L992.46 648.14" stroke="#132e65" stroke-width="1.5"></path><path d="M1125.58 -103.17L1125.58 -103.17" stroke="#132e65" stroke-width="1.5"></path><path d="M1125.58 -103.17L1304.31 -40.39" stroke="#132e65" stroke-width="1.5"></path><path d="M1125.58 -103.17L996.51 41.84" stroke="#132e65" stroke-width="1.5"></path><path d="M1125.58 -103.17L1120.15 96.86" stroke="#132e65" stroke-width="1.5"></path><path d="M1125.58 -103.17L1277.27 65.17" stroke="#132e65" stroke-width="1.5"></path><path d="M1125.58 -103.17L1391.76 -38.88" stroke="#132e65" stroke-width="1.5"></path><path d="M1120.15 96.86L1120.15 96.86" stroke="#132e65" stroke-width="1.5"></path><path d="M1120.15 96.86L1277.27 65.17" stroke="#132e65" stroke-width="1.5"></path><path d="M1096.07 349.15L1096.07 349.15" stroke="#132e65" stroke-width="1.5"></path><path d="M1096.07 349.15L1125.73 508.77" stroke="#132e65" stroke-width="1.5"></path><path d="M1125.73 508.77L1125.73 508.77" stroke="#132e65" stroke-width="1.5"></path><path d="M1125.73 508.77L1258.31 551.57" stroke="#132e65" stroke-width="1.5"></path><path d="M1125.73 508.77L1160.83 670.98" stroke="#132e65" stroke-width="1.5"></path><path d="M1125.73 508.77L1253.5 641.74" stroke="#132e65" stroke-width="1.5"></path><path d="M1125.73 508.77L992.46 648.14" stroke="#132e65" stroke-width="1.5"></path><path d="M1160.83 670.98L1160.83 670.98" stroke="#132e65" stroke-width="1.5"></path><path d="M1160.83 670.98L1253.5 641.74" stroke="#132e65" stroke-width="1.5"></path><path d="M1160.83 670.98L1258.31 551.57" stroke="#132e65" stroke-width="1.5"></path><path d="M1160.83 670.98L992.46 648.14" stroke="#132e65" stroke-width="1.5"></path><path d="M1160.83 670.98L1446.79 669.29" stroke="#132e65" stroke-width="1.5"></path><path d="M1304.31 -40.39L1304.31 -40.39" stroke="#132e65" stroke-width="1.5"></path><path d="M1304.31 -40.39L1391.76 -38.88" stroke="#132e65" stroke-width="1.5"></path><path d="M1304.31 -40.39L1277.27 65.17" stroke="#132e65" stroke-width="1.5"></path><path d="M1304.31 -40.39L1450.88 86.72" stroke="#132e65" stroke-width="1.5"></path><path d="M1304.31 -40.39L1120.15 96.86" stroke="#132e65" stroke-width="1.5"></path><path d="M1277.27 65.17L1277.27 65.17" stroke="#132e65" stroke-width="1.5"></path><path d="M1277.27 65.17L1391.76 -38.88" stroke="#132e65" stroke-width="1.5"></path><path d="M1283.45 235.61L1283.45 235.61" stroke="#132e65" stroke-width="1.5"></path><path d="M1283.45 235.61L1435.34 218.01" stroke="#132e65" stroke-width="1.5"></path><path d="M1283.45 235.61L1277.27 65.17" stroke="#132e65" stroke-width="1.5"></path><path d="M1283.45 235.61L1431.45 369.78" stroke="#132e65" stroke-width="1.5"></path><path d="M1283.45 235.61L1120.15 96.86" stroke="#132e65" stroke-width="1.5"></path><path d="M1258.31 551.57L1258.31 551.57" stroke="#132e65" stroke-width="1.5"></path><path d="M1258.31 551.57L1253.5 641.74" stroke="#132e65" stroke-width="1.5"></path><path d="M1258.31 551.57L1434.88 539.88" stroke="#132e65" stroke-width="1.5"></path><path d="M1258.31 551.57L1446.79 669.29" stroke="#132e65" stroke-width="1.5"></path><path d="M1253.5 641.74L1253.5 641.74" stroke="#132e65" stroke-width="1.5"></path><path d="M1253.5 641.74L1446.79 669.29" stroke="#132e65" stroke-width="1.5"></path><path d="M1253.5 641.74L1434.88 539.88" stroke="#132e65" stroke-width="1.5"></path><path d="M1253.5 641.74L992.46 648.14" stroke="#132e65" stroke-width="1.5"></path><path d="M1391.76 -38.88L1391.76 -38.88" stroke="#132e65" stroke-width="1.5"></path><path d="M1391.76 -38.88L1450.88 86.72" stroke="#132e65" stroke-width="1.5"></path><path d="M1391.76 -38.88L1539.8 -59.96" stroke="#132e65" stroke-width="1.5"></path><path d="M1450.88 86.72L1450.88 86.72" stroke="#132e65" stroke-width="1.5"></path><path d="M1450.88 86.72L1435.34 218.01" stroke="#132e65" stroke-width="1.5"></path><path d="M1435.34 218.01L1435.34 218.01" stroke="#132e65" stroke-width="1.5"></path><path d="M1435.34 218.01L1431.45 369.78" stroke="#132e65" stroke-width="1.5"></path><path d="M1435.34 218.01L1589.53 361.5" stroke="#132e65" stroke-width="1.5"></path><path d="M1435.34 218.01L1277.27 65.17" stroke="#132e65" stroke-width="1.5"></path><path d="M1435.34 218.01L1610.01 72.26" stroke="#132e65" stroke-width="1.5"></path><path d="M1431.45 369.78L1431.45 369.78" stroke="#132e65" stroke-width="1.5"></path><path d="M1431.45 369.78L1589.53 361.5" stroke="#132e65" stroke-width="1.5"></path><path d="M1434.88 539.88L1434.88 539.88" stroke="#132e65" stroke-width="1.5"></path><path d="M1434.88 539.88L1552.92 558.76" stroke="#132e65" stroke-width="1.5"></path><path d="M1434.88 539.88L1446.79 669.29" stroke="#132e65" stroke-width="1.5"></path><path d="M1434.88 539.88L1431.45 369.78" stroke="#132e65" stroke-width="1.5"></path><path d="M1434.88 539.88L1538.38 684.87" stroke="#132e65" stroke-width="1.5"></path><path d="M1446.79 669.29L1446.79 669.29" stroke="#132e65" stroke-width="1.5"></path><path d="M1446.79 669.29L1538.38 684.87" stroke="#132e65" stroke-width="1.5"></path><path d="M1539.8 -59.96L1539.8 -59.96" stroke="#132e65" stroke-width="1.5"></path><path d="M1539.8 -59.96L1610.01 72.26" stroke="#132e65" stroke-width="1.5"></path><path d="M1539.8 -59.96L1450.88 86.72" stroke="#132e65" stroke-width="1.5"></path><path d="M1610.01 72.26L1610.01 72.26" stroke="#132e65" stroke-width="1.5"></path><path d="M1610.01 72.26L1450.88 86.72" stroke="#132e65" stroke-width="1.5"></path><path d="M1610.01 72.26L1391.76 -38.88" stroke="#132e65" stroke-width="1.5"></path><path d="M1589.53 361.5L1589.53 361.5" stroke="#132e65" stroke-width="1.5"></path><path d="M1589.53 361.5L1552.92 558.76" stroke="#132e65" stroke-width="1.5"></path><path d="M1589.53 361.5L1434.88 539.88" stroke="#132e65" stroke-width="1.5"></path><path d="M1552.92 558.76L1552.92 558.76" stroke="#132e65" stroke-width="1.5"></path><path d="M1552.92 558.76L1538.38 684.87" stroke="#132e65" stroke-width="1.5"></path><path d="M1552.92 558.76L1446.79 669.29" stroke="#132e65" stroke-width="1.5"></path><path d="M1552.92 558.76L1431.45 369.78" stroke="#132e65" stroke-width="1.5"></path><path d="M1552.92 558.76L1258.31 551.57" stroke="#132e65" stroke-width="1.5"></path><path d="M1538.38 684.87L1538.38 684.87" stroke="#132e65" stroke-width="1.5"></path><circle r="5" cx="-55.52" cy="367.74" fill="#132e65"></circle><circle r="5" cx="-67.68" cy="551.81" fill="#132e65"></circle><circle r="5" cx="-86.82" cy="638.21" fill="#132e65"></circle><circle r="5" cx="111.26" cy="403.93" fill="#132e65"></circle><circle r="5" cx="56.79" cy="541.75" fill="#132e65"></circle><circle r="5" cx="44.53" cy="701.11" fill="#132e65"></circle><circle r="5" cx="191.72" cy="369.11" fill="#132e65"></circle><circle r="5" cx="230.24" cy="537.7" fill="#132e65"></circle><circle r="5" cx="243.37" cy="649.29" fill="#132e65"></circle><circle r="5" cx="375.49" cy="370.45" fill="#132e65"></circle><circle r="5" cx="342.88" cy="488.85" fill="#132e65"></circle><circle r="5" cx="345.12" cy="706.38" fill="#132e65"></circle><circle r="5" cx="549.35" cy="364.43" fill="#132e65"></circle><circle r="5" cx="535.1" cy="495.95" fill="#132e65"></circle><circle r="5" cx="550.39" cy="646.19" fill="#132e65"></circle><circle r="5" cx="672.11" cy="220.48" fill="#132e65"></circle><circle r="5" cx="639.26" cy="377.24" fill="#132e65"></circle><circle r="5" cx="675.77" cy="514.55" fill="#132e65"></circle><circle r="5" cx="640.13" cy="693.28" fill="#132e65"></circle><circle r="5" cx="861.44" cy="63.18" fill="#132e65"></circle><circle r="5" cx="810.44" cy="245.06" fill="#132e65"></circle><circle r="5" cx="800.8" cy="347.58" fill="#132e65"></circle><circle r="5" cx="997.92" cy="-109.43" fill="#132e65"></circle><circle r="5" cx="996.51" cy="41.84" fill="#132e65"></circle><circle r="5" cx="978.99" cy="216.06" fill="#132e65"></circle><circle r="5" cx="965.37" cy="372.06" fill="#132e65"></circle><circle r="5" cx="987.09" cy="526.01" fill="#132e65"></circle><circle r="5" cx="992.46" cy="648.14" fill="#132e65"></circle><circle r="5" cx="1125.58" cy="-103.17" fill="#132e65"></circle><circle r="5" cx="1120.15" cy="96.86" fill="#132e65"></circle><circle r="5" cx="1096.07" cy="349.15" fill="#132e65"></circle><circle r="5" cx="1125.73" cy="508.77" fill="#132e65"></circle><circle r="5" cx="1160.83" cy="670.98" fill="#132e65"></circle><circle r="5" cx="1304.31" cy="-40.39" fill="#132e65"></circle><circle r="5" cx="1277.27" cy="65.17" fill="#132e65"></circle><circle r="5" cx="1283.45" cy="235.61" fill="#132e65"></circle><circle r="5" cx="1258.31" cy="551.57" fill="#132e65"></circle><circle r="5" cx="1253.5" cy="641.74" fill="#132e65"></circle><circle r="5" cx="1391.76" cy="-38.88" fill="#132e65"></circle><circle r="5" cx="1450.88" cy="86.72" fill="#132e65"></circle><circle r="5" cx="1435.34" cy="218.01" fill="#132e65"></circle><circle r="5" cx="1431.45" cy="369.78" fill="#132e65"></circle><circle r="5" cx="1434.88" cy="539.88" fill="#132e65"></circle><circle r="5" cx="1446.79" cy="669.29" fill="#132e65"></circle><circle r="5" cx="1539.8" cy="-59.96" fill="#132e65"></circle><circle r="5" cx="1610.01" cy="72.26" fill="#132e65"></circle><circle r="5" cx="1589.53" cy="361.5" fill="#132e65"></circle><circle r="5" cx="1552.92" cy="558.76" fill="#132e65"></circle><circle r="5" cx="1538.38" cy="684.87" fill="#132e65"></circle><path d="M43.09 540.95L43.09 540.95" stroke="hsl(228.5, 77.2%, 51.5%)" stroke-width="1.5"></path><path d="M43.09 540.95L67.45 650.25" stroke="hsl(228.5, 77.2%, 51.5%)" stroke-width="1.5"></path><path d="M43.09 540.95L348.28 644.32" stroke="hsl(228.5, 77.2%, 51.5%)" stroke-width="1.5"></path><path d="M43.09 540.95L396.52 544.29" stroke="hsl(228.5, 77.2%, 51.5%)" stroke-width="1.5"></path><path d="M396.52 544.29L396.52 544.29" stroke="hsl(228.5, 77.2%, 51.5%)" stroke-width="1.5"></path><path d="M396.52 544.29L348.28 644.32" stroke="hsl(228.5, 77.2%, 51.5%)" stroke-width="1.5"></path><path d="M396.52 544.29L538.64 519.73" stroke="hsl(228.5, 77.2%, 51.5%)" stroke-width="1.5"></path><path d="M348.28 644.32L348.28 644.32" stroke="hsl(228.5, 77.2%, 51.5%)" stroke-width="1.5"></path><path d="M348.28 644.32L538.64 519.73" stroke="hsl(228.5, 77.2%, 51.5%)" stroke-width="1.5"></path><path d="M348.28 644.32L67.45 650.25" stroke="hsl(228.5, 77.2%, 51.5%)" stroke-width="1.5"></path><path d="M644.98 385.12L644.98 385.12" stroke="hsl(228.5, 77.2%, 51.5%)" stroke-width="1.5"></path><path d="M644.98 385.12L688.07 492.05" stroke="hsl(228.5, 77.2%, 51.5%)" stroke-width="1.5"></path><path d="M644.98 385.12L538.64 519.73" stroke="hsl(228.5, 77.2%, 51.5%)" stroke-width="1.5"></path><path d="M644.98 385.12L837.57 368.31" stroke="hsl(228.5, 77.2%, 51.5%)" stroke-width="1.5"></path><path d="M1277.69 364.44L1277.69 364.44" stroke="hsl(228.5, 77.2%, 51.5%)" stroke-width="1.5"></path><path d="M1277.69 364.44L1400.04 403.58" stroke="hsl(228.5, 77.2%, 51.5%)" stroke-width="1.5"></path><path d="M1277.69 364.44L1268.33 190.79" stroke="hsl(228.5, 77.2%, 51.5%)" stroke-width="1.5"></path><path d="M1277.69 364.44L1101.88 364.81" stroke="hsl(228.5, 77.2%, 51.5%)" stroke-width="1.5"></path><path d="M1277.69 364.44L1254.7 540.06" stroke="hsl(228.5, 77.2%, 51.5%)" stroke-width="1.5"></path><path d="M1277.69 364.44L1161.24 225.6" stroke="hsl(228.5, 77.2%, 51.5%)" stroke-width="1.5"></path><path d="M1297.79 676.56L1297.79 676.56" stroke="hsl(228.5, 77.2%, 51.5%)" stroke-width="1.5"></path><path d="M1297.79 676.56L1254.7 540.06" stroke="hsl(228.5, 77.2%, 51.5%)" stroke-width="1.5"></path><path d="M1297.79 676.56L1454.85 687.39" stroke="hsl(228.5, 77.2%, 51.5%)" stroke-width="1.5"></path><path d="M1297.79 676.56L1410.12 498.54" stroke="hsl(228.5, 77.2%, 51.5%)" stroke-width="1.5"></path><path d="M1297.79 676.56L1098.22 553.16" stroke="hsl(228.5, 77.2%, 51.5%)" stroke-width="1.5"></path><path d="M1297.79 676.56L1553.87 700.9" stroke="hsl(228.5, 77.2%, 51.5%)" stroke-width="1.5"></path><path d="M1297.79 676.56L1550.71 533.75" stroke="hsl(228.5, 77.2%, 51.5%)" stroke-width="1.5"></path><path d="M1454.85 687.39L1454.85 687.39" stroke="hsl(228.5, 77.2%, 51.5%)" stroke-width="1.5"></path><path d="M1454.85 687.39L1553.87 700.9" stroke="hsl(228.5, 77.2%, 51.5%)" stroke-width="1.5"></path><path d="M1454.85 687.39L1550.71 533.75" stroke="hsl(228.5, 77.2%, 51.5%)" stroke-width="1.5"></path><path d="M1454.85 687.39L1410.12 498.54" stroke="hsl(228.5, 77.2%, 51.5%)" stroke-width="1.5"></path><path d="M1454.85 687.39L1254.7 540.06" stroke="hsl(228.5, 77.2%, 51.5%)" stroke-width="1.5"></path><path d="M1454.85 687.39L1400.04 403.58" stroke="hsl(228.5, 77.2%, 51.5%)" stroke-width="1.5"></path><path d="M1553.87 700.9L1553.87 700.9" stroke="hsl(228.5, 77.2%, 51.5%)" stroke-width="1.5"></path><path d="M1553.87 700.9L1550.71 533.75" stroke="hsl(228.5, 77.2%, 51.5%)" stroke-width="1.5"></path><path d="M1553.87 700.9L1410.12 498.54" stroke="hsl(228.5, 77.2%, 51.5%)" stroke-width="1.5"></path><path d="M1553.87 700.9L1587.54 384.35" stroke="hsl(228.5, 77.2%, 51.5%)" stroke-width="1.5"></path><path d="M1553.87 700.9L1400.04 403.58" stroke="hsl(228.5, 77.2%, 51.5%)" stroke-width="1.5"></path><path d="M67.45 650.25L67.45 650.25" stroke="hsl(228.5, 77.2%, 51.5%)" stroke-width="1.5"></path><path d="M67.45 650.25L396.52 544.29" stroke="hsl(228.5, 77.2%, 51.5%)" stroke-width="1.5"></path><path d="M67.45 650.25L538.64 519.73" stroke="hsl(228.5, 77.2%, 51.5%)" stroke-width="1.5"></path><path d="M538.64 519.73L538.64 519.73" stroke="hsl(228.5, 77.2%, 51.5%)" stroke-width="1.5"></path><path d="M538.64 519.73L688.07 492.05" stroke="hsl(228.5, 77.2%, 51.5%)" stroke-width="1.5"></path><path d="M688.07 492.05L688.07 492.05" stroke="hsl(228.5, 77.2%, 51.5%)" stroke-width="1.5"></path><path d="M693.56 664.01L693.56 664.01" stroke="hsl(228.5, 77.2%, 51.5%)" stroke-width="1.5"></path><path d="M693.56 664.01L688.07 492.05" stroke="hsl(228.5, 77.2%, 51.5%)" stroke-width="1.5"></path><path d="M693.56 664.01L840.99 526.34" stroke="hsl(228.5, 77.2%, 51.5%)" stroke-width="1.5"></path><path d="M693.56 664.01L538.64 519.73" stroke="hsl(228.5, 77.2%, 51.5%)" stroke-width="1.5"></path><path d="M837.57 368.31L837.57 368.31" stroke="hsl(228.5, 77.2%, 51.5%)" stroke-width="1.5"></path><path d="M837.57 368.31L840.99 526.34" stroke="hsl(228.5, 77.2%, 51.5%)" stroke-width="1.5"></path><path d="M837.57 368.31L1009.06 383.3" stroke="hsl(228.5, 77.2%, 51.5%)" stroke-width="1.5"></path><path d="M837.57 368.31L688.07 492.05" stroke="hsl(228.5, 77.2%, 51.5%)" stroke-width="1.5"></path><path d="M840.99 526.34L840.99 526.34" stroke="hsl(228.5, 77.2%, 51.5%)" stroke-width="1.5"></path><path d="M840.99 526.34L688.07 492.05" stroke="hsl(228.5, 77.2%, 51.5%)" stroke-width="1.5"></path><path d="M1009.06 383.3L1009.06 383.3" stroke="hsl(228.5, 77.2%, 51.5%)" stroke-width="1.5"></path><path d="M1009.06 383.3L1101.88 364.81" stroke="hsl(228.5, 77.2%, 51.5%)" stroke-width="1.5"></path><path d="M1009.06 383.3L999.04 541.74" stroke="hsl(228.5, 77.2%, 51.5%)" stroke-width="1.5"></path><path d="M999.04 541.74L999.04 541.74" stroke="hsl(228.5, 77.2%, 51.5%)" stroke-width="1.5"></path><path d="M999.04 541.74L1098.22 553.16" stroke="hsl(228.5, 77.2%, 51.5%)" stroke-width="1.5"></path><path d="M999.04 541.74L1004.92 681.86" stroke="hsl(228.5, 77.2%, 51.5%)" stroke-width="1.5"></path><path d="M1004.92 681.86L1004.92 681.86" stroke="hsl(228.5, 77.2%, 51.5%)" stroke-width="1.5"></path><path d="M1004.92 681.86L1098.22 553.16" stroke="hsl(228.5, 77.2%, 51.5%)" stroke-width="1.5"></path><path d="M1004.92 681.86L840.99 526.34" stroke="hsl(228.5, 77.2%, 51.5%)" stroke-width="1.5"></path><path d="M1004.92 681.86L1254.7 540.06" stroke="hsl(228.5, 77.2%, 51.5%)" stroke-width="1.5"></path><path d="M1004.92 681.86L1297.79 676.56" stroke="hsl(228.5, 77.2%, 51.5%)" stroke-width="1.5"></path><path d="M1161.24 225.6L1161.24 225.6" stroke="hsl(228.5, 77.2%, 51.5%)" stroke-width="1.5"></path><path d="M1161.24 225.6L1268.33 190.79" stroke="hsl(228.5, 77.2%, 51.5%)" stroke-width="1.5"></path><path d="M1161.24 225.6L1101.88 364.81" stroke="hsl(228.5, 77.2%, 51.5%)" stroke-width="1.5"></path><path d="M1161.24 225.6L1297.81 60.63" stroke="hsl(228.5, 77.2%, 51.5%)" stroke-width="1.5"></path><path d="M1101.88 364.81L1101.88 364.81" stroke="hsl(228.5, 77.2%, 51.5%)" stroke-width="1.5"></path><path d="M1101.88 364.81L1098.22 553.16" stroke="hsl(228.5, 77.2%, 51.5%)" stroke-width="1.5"></path><path d="M1101.88 364.81L999.04 541.74" stroke="hsl(228.5, 77.2%, 51.5%)" stroke-width="1.5"></path><path d="M1098.22 553.16L1098.22 553.16" stroke="hsl(228.5, 77.2%, 51.5%)" stroke-width="1.5"></path><path d="M1297.81 60.63L1297.81 60.63" stroke="hsl(228.5, 77.2%, 51.5%)" stroke-width="1.5"></path><path d="M1297.81 60.63L1409.13 78.55" stroke="hsl(228.5, 77.2%, 51.5%)" stroke-width="1.5"></path><path d="M1297.81 60.63L1268.33 190.79" stroke="hsl(228.5, 77.2%, 51.5%)" stroke-width="1.5"></path><path d="M1297.81 60.63L1442.33 -87.12" stroke="hsl(228.5, 77.2%, 51.5%)" stroke-width="1.5"></path><path d="M1268.33 190.79L1268.33 190.79" stroke="hsl(228.5, 77.2%, 51.5%)" stroke-width="1.5"></path><path d="M1268.33 190.79L1424.27 252.55" stroke="hsl(228.5, 77.2%, 51.5%)" stroke-width="1.5"></path><path d="M1254.7 540.06L1254.7 540.06" stroke="hsl(228.5, 77.2%, 51.5%)" stroke-width="1.5"></path><path d="M1254.7 540.06L1098.22 553.16" stroke="hsl(228.5, 77.2%, 51.5%)" stroke-width="1.5"></path><path d="M1254.7 540.06L1410.12 498.54" stroke="hsl(228.5, 77.2%, 51.5%)" stroke-width="1.5"></path><path d="M1254.7 540.06L1400.04 403.58" stroke="hsl(228.5, 77.2%, 51.5%)" stroke-width="1.5"></path><path d="M1442.33 -87.12L1442.33 -87.12" stroke="hsl(228.5, 77.2%, 51.5%)" stroke-width="1.5"></path><path d="M1442.33 -87.12L1547.94 -58.22" stroke="hsl(228.5, 77.2%, 51.5%)" stroke-width="1.5"></path><path d="M1442.33 -87.12L1409.13 78.55" stroke="hsl(228.5, 77.2%, 51.5%)" stroke-width="1.5"></path><path d="M1442.33 -87.12L1611.16 91.04" stroke="hsl(228.5, 77.2%, 51.5%)" stroke-width="1.5"></path><path d="M1442.33 -87.12L1268.33 190.79" stroke="hsl(228.5, 77.2%, 51.5%)" stroke-width="1.5"></path><path d="M1409.13 78.55L1409.13 78.55" stroke="hsl(228.5, 77.2%, 51.5%)" stroke-width="1.5"></path><path d="M1409.13 78.55L1424.27 252.55" stroke="hsl(228.5, 77.2%, 51.5%)" stroke-width="1.5"></path><path d="M1424.27 252.55L1424.27 252.55" stroke="hsl(228.5, 77.2%, 51.5%)" stroke-width="1.5"></path><path d="M1424.27 252.55L1564.79 238.73" stroke="hsl(228.5, 77.2%, 51.5%)" stroke-width="1.5"></path><path d="M1424.27 252.55L1400.04 403.58" stroke="hsl(228.5, 77.2%, 51.5%)" stroke-width="1.5"></path><path d="M1400.04 403.58L1400.04 403.58" stroke="hsl(228.5, 77.2%, 51.5%)" stroke-width="1.5"></path><path d="M1400.04 403.58L1410.12 498.54" stroke="hsl(228.5, 77.2%, 51.5%)" stroke-width="1.5"></path><path d="M1400.04 403.58L1587.54 384.35" stroke="hsl(228.5, 77.2%, 51.5%)" stroke-width="1.5"></path><path d="M1400.04 403.58L1550.71 533.75" stroke="hsl(228.5, 77.2%, 51.5%)" stroke-width="1.5"></path><path d="M1410.12 498.54L1410.12 498.54" stroke="hsl(228.5, 77.2%, 51.5%)" stroke-width="1.5"></path><path d="M1410.12 498.54L1550.71 533.75" stroke="hsl(228.5, 77.2%, 51.5%)" stroke-width="1.5"></path><path d="M1410.12 498.54L1277.69 364.44" stroke="hsl(228.5, 77.2%, 51.5%)" stroke-width="1.5"></path><path d="M1547.94 -58.22L1547.94 -58.22" stroke="hsl(228.5, 77.2%, 51.5%)" stroke-width="1.5"></path><path d="M1547.94 -58.22L1611.16 91.04" stroke="hsl(228.5, 77.2%, 51.5%)" stroke-width="1.5"></path><path d="M1547.94 -58.22L1409.13 78.55" stroke="hsl(228.5, 77.2%, 51.5%)" stroke-width="1.5"></path><path d="M1547.94 -58.22L1297.81 60.63" stroke="hsl(228.5, 77.2%, 51.5%)" stroke-width="1.5"></path><path d="M1547.94 -58.22L1564.79 238.73" stroke="hsl(228.5, 77.2%, 51.5%)" stroke-width="1.5"></path><path d="M1611.16 91.04L1611.16 91.04" stroke="hsl(228.5, 77.2%, 51.5%)" stroke-width="1.5"></path><path d="M1611.16 91.04L1564.79 238.73" stroke="hsl(228.5, 77.2%, 51.5%)" stroke-width="1.5"></path><path d="M1564.79 238.73L1564.79 238.73" stroke="hsl(228.5, 77.2%, 51.5%)" stroke-width="1.5"></path><path d="M1564.79 238.73L1587.54 384.35" stroke="hsl(228.5, 77.2%, 51.5%)" stroke-width="1.5"></path><path d="M1564.79 238.73L1409.13 78.55" stroke="hsl(228.5, 77.2%, 51.5%)" stroke-width="1.5"></path><path d="M1564.79 238.73L1400.04 403.58" stroke="hsl(228.5, 77.2%, 51.5%)" stroke-width="1.5"></path><path d="M1564.79 238.73L1550.71 533.75" stroke="hsl(228.5, 77.2%, 51.5%)" stroke-width="1.5"></path><path d="M1587.54 384.35L1587.54 384.35" stroke="hsl(228.5, 77.2%, 51.5%)" stroke-width="1.5"></path><path d="M1587.54 384.35L1550.71 533.75" stroke="hsl(228.5, 77.2%, 51.5%)" stroke-width="1.5"></path><path d="M1587.54 384.35L1424.27 252.55" stroke="hsl(228.5, 77.2%, 51.5%)" stroke-width="1.5"></path><path d="M1587.54 384.35L1410.12 498.54" stroke="hsl(228.5, 77.2%, 51.5%)" stroke-width="1.5"></path><path d="M1550.71 533.75L1550.71 533.75" stroke="hsl(228.5, 77.2%, 51.5%)" stroke-width="1.5"></path><circle r="25" cx="43.09" cy="540.95" fill="url(&quot;#SvgjsRadialGradient1099&quot;)"></circle><circle r="25" cx="396.52" cy="544.29" fill="url(&quot;#SvgjsRadialGradient1099&quot;)"></circle><circle r="25" cx="348.28" cy="644.32" fill="url(&quot;#SvgjsRadialGradient1099&quot;)"></circle><circle r="25" cx="644.98" cy="385.12" fill="url(&quot;#SvgjsRadialGradient1099&quot;)"></circle><circle r="25" cx="1277.69" cy="364.44" fill="url(&quot;#SvgjsRadialGradient1099&quot;)"></circle><circle r="25" cx="1297.79" cy="676.56" fill="url(&quot;#SvgjsRadialGradient1099&quot;)"></circle><circle r="25" cx="1454.85" cy="687.39" fill="url(&quot;#SvgjsRadialGradient1099&quot;)"></circle><circle r="25" cx="1553.87" cy="700.9" fill="url(&quot;#SvgjsRadialGradient1099&quot;)"></circle><circle r="5" cx="67.45" cy="650.25" fill="#8b9ad9"></circle><circle r="5" cx="538.64" cy="519.73" fill="#8b9ad9"></circle><circle r="5" cx="688.07" cy="492.05" fill="#8b9ad9"></circle><circle r="5" cx="693.56" cy="664.01" fill="#8b9ad9"></circle><circle r="5" cx="837.57" cy="368.31" fill="#8b9ad9"></circle><circle r="5" cx="840.99" cy="526.34" fill="#8b9ad9"></circle><circle r="5" cx="1009.06" cy="383.3" fill="#8b9ad9"></circle><circle r="5" cx="999.04" cy="541.74" fill="#8b9ad9"></circle><circle r="5" cx="1004.92" cy="681.86" fill="#8b9ad9"></circle><circle r="5" cx="1161.24" cy="225.6" fill="#8b9ad9"></circle><circle r="5" cx="1101.88" cy="364.81" fill="#8b9ad9"></circle><circle r="5" cx="1098.22" cy="553.16" fill="#8b9ad9"></circle><circle r="5" cx="1297.81" cy="60.63" fill="#8b9ad9"></circle><circle r="5" cx="1268.33" cy="190.79" fill="#8b9ad9"></circle><circle r="5" cx="1254.7" cy="540.06" fill="#8b9ad9"></circle><circle r="5" cx="1442.33" cy="-87.12" fill="#8b9ad9"></circle><circle r="5" cx="1409.13" cy="78.55" fill="#8b9ad9"></circle><circle r="5" cx="1424.27" cy="252.55" fill="#8b9ad9"></circle><circle r="5" cx="1400.04" cy="403.58" fill="#8b9ad9"></circle><circle r="5" cx="1410.12" cy="498.54" fill="#8b9ad9"></circle><circle r="5" cx="1547.94" cy="-58.22" fill="#8b9ad9"></circle><circle r="5" cx="1611.16" cy="91.04" fill="#8b9ad9"></circle><circle r="5" cx="1564.79" cy="238.73" fill="#8b9ad9"></circle><circle r="5" cx="1587.54" cy="384.35" fill="#8b9ad9"></circle><circle r="5" cx="1550.71" cy="533.75" fill="#8b9ad9"></circle></g><defs><mask id="SvgjsMask1097"><rect width="1440" height="560" fill="#ffffff"></rect></mask><linearGradient x1="0%" y1="50%" x2="100%" y2="50%" gradientUnits="userSpaceOnUse" id="SvgjsLinearGradient1098"><stop stop-color="#0e2a47" offset="0"></stop><stop stop-color="#00459e" offset="1"></stop></linearGradient><radialGradient id="SvgjsRadialGradient1099"><stop stop-color="#ffffff" offset="0.1"></stop><stop stop-color="#1735b3" offset="0.2"></stop><stop stop-color="rgba(23, 53, 179, 0)" offset="1"></stop></radialGradient></defs></svg>